<?xml version="1.0" encoding="UTF-8" standalone="no"?>
<svg
   width="25"
   height="25"
   viewBox="0 0 25 25"
   fill="none"
   version="1.1"
   id="svg1"
   sodipodi:docname="next.svg"
   inkscape:version="1.3 (0e150ed, 2023-07-21)"
   xmlns:inkscape="http://www.inkscape.org/namespaces/inkscape"
   xmlns:sodipodi="http://sodipodi.sourceforge.net/DTD/sodipodi-0.dtd"
   xmlns="http://www.w3.org/2000/svg"
   xmlns:svg="http://www.w3.org/2000/svg">
  <sodipodi:namedview
     id="namedview1"
     pagecolor="#ffffff"
     bordercolor="#999999"
     borderopacity="1"
     inkscape:showpageshadow="2"
     inkscape:pageopacity="0"
     inkscape:pagecheckerboard="0"
     inkscape:deskcolor="#d1d1d1"
     inkscape:zoom="9.44"
     inkscape:cx="12.552966"
     inkscape:cy="12.5"
     inkscape:window-width="1440"
     inkscape:window-height="442"
     inkscape:window-x="0"
     inkscape:window-y="30"
     inkscape:window-maximized="0"
     inkscape:current-layer="svg1" />
  <g
     clip-path="url(#clip0_3307_1736)"
     id="g1"
     style="fill:#f9f9f9">
    <path
       d="M 11.7433,0.280287 C 11.6905,0.285086 11.5225,0.30188 11.3713,0.313876 7.8848,0.628171 4.61902,2.50914 2.55061,5.40017 1.39883,7.00763 0.662164,8.83102 0.383817,10.7624 c -0.098382,0.6741 -0.110379,0.8733 -0.110379,1.7874 0,0.9141 0.011997,1.1132 0.110379,1.7874 0.667073,4.6088 3.947253,8.4811 8.396023,9.9159 0.79665,0.2567 1.63646,0.4318 2.59146,0.5374 0.372,0.0408 1.9797,0.0408 2.3516,0 1.6485,-0.1824 3.045,-0.5902 4.4224,-1.2932 0.2111,-0.108 0.2519,-0.1367 0.2231,-0.1607 -0.0192,-0.0144 -0.919,-1.2212 -1.9988,-2.6799 L 14.4068,18.0055 11.9472,14.366 c -1.3533,-2.001 -2.4667,-3.6372 -2.47629,-3.6372 -0.0096,-0.0024 -0.0192,1.6146 -0.024,3.5892 -0.0072,3.4572 -0.0096,3.5964 -0.05279,3.6779 -0.06239,0.1176 -0.11038,0.1656 -0.21116,0.2184 -0.07678,0.0384 -0.14397,0.0456 -0.5063,0.0456 H 8.26153 L 8.15115,18.1903 C 8.07917,18.1447 8.02638,18.0847 7.99039,18.0151 L 7.93999,17.9072 7.94479,13.0968 7.95199,8.284 8.02638,8.19044 C 8.06477,8.14005 8.14636,8.07527 8.20394,8.04409 8.30233,7.9961 8.34072,7.9913 8.75584,7.9913 c 0.48951,0 0.57109,0.0192 0.69827,0.15835 0.03599,0.03839 1.36779,2.04415 2.96109,4.46015 1.5933,2.4159 3.772,5.7148 4.8422,7.3343 l 1.9437,2.9438 0.0984,-0.0648 c 0.871,-0.5662 1.7924,-1.3723 2.5219,-2.212 1.5525,-1.7826 2.5531,-3.9563 2.889,-6.2739 0.0984,-0.6742 0.1104,-0.8733 0.1104,-1.7874 0,-0.9141 -0.012,-1.1133 -0.1104,-1.7874 C 24.0434,6.15352 20.7632,2.28122 16.3144,0.846498 15.5298,0.592183 14.6947,0.417042 13.7589,0.311477 13.5285,0.287485 11.9424,0.261094 11.7433,0.280287 Z M 16.7679,7.7034 c 0.1152,0.05758 0.2088,0.16794 0.2424,0.2831 0.0192,0.06238 0.024,1.39634 0.0192,4.4025 l -0.0072,4.3138 -0.7607,-1.166 -0.763,-1.166 V 11.235 c 0,-2.0273 0.0096,-3.16692 0.024,-3.2221 0.0384,-0.13436 0.1223,-0.23992 0.2375,-0.3023 0.0984,-0.05039 0.1344,-0.05518 0.5111,-0.05518 0.3552,0 0.4175,0.00479 0.4967,0.04798 z"
       fill="white"
       id="path1"
       style="fill:#f9f9f9" />
  </g>
  <defs
     id="defs1">
    <clipPath
       id="clip0_3307_1736">
      <rect
         width="24.5474"
         height="24.5474"
         fill="white"
         transform="translate(0.273438 0.273682)"
         id="rect1" />
    </clipPath>
  </defs>
</svg>
