<svg role="img" viewBox="0 0 100 100" xmlns="http://www.w3.org/2000/svg" id="Tryhackme--Streamline-Simple-Icons" height="100" width="100">
  <desc>
    Tryhackme Streamline Icon: https://streamlinehq.com
  </desc>
  <title>TryHackMe</title>
  <path d="M44.60416666666667 0C31.416666666666668 0 20.425 9.520833333333334 18.120833333333337 22.045833333333338a18.854166666666668 18.854166666666668 0 0 0 -17.1125 18.75 18.854166666666668 18.854166666666668 0 0 0 18.833333333333332 18.833333333333332h28.170833333333334a2.604166666666667 2.604166666666667 0 1 0 0 -5.208333333333334H19.837500000000002a13.637500000000001 13.637500000000001 0 0 1 -13.625000000000002 -13.625000000000002A13.637500000000001 13.637500000000001 0 0 1 27.458333333333336 29.500000000000004a2.604166666666667 2.604166666666667 0 0 0 2.9166666666666665 -4.3125 18.700000000000003 18.700000000000003 0 0 0 -7 -2.875 21.7625 21.7625 0 0 1 21.233333333333334 -17.1 21.75416666666667 21.75416666666667 0 0 1 21.558333333333337 19.041666666666668 18.704166666666666 18.704166666666666 0 0 0 -2.033333333333333 1.2708333333333335 2.604166666666667 2.604166666666667 0 1 0 3.0458333333333334 4.220833333333333 13.520833333333334 13.520833333333334 0 0 1 7.966666666666667 -2.566666666666667 13.658333333333335 13.658333333333335 0 0 1 13.345833333333333 10.875 2.604166666666667 2.604166666666667 0 0 0 5.104166666666667 -1.0458333333333334 18.887500000000003 18.887500000000003 0 0 0 -18.45 -15.041666666666668 18.916666666666668 18.916666666666668 0 0 0 -3.9916666666666667 0.4375C68.98333333333335 9.7 57.91666666666667 0 44.60416666666667 0zm21.633333333333336 44.333333333333336a3.854166666666667 3.854166666666667 0 0 0 -1.9250000000000003 0.45 3.804166666666667 3.804166666666667 0 0 0 -1.3041666666666667 1.2083333333333333 5.291666666666667 5.291666666666667 0 0 0 -0.7291666666666666 1.7791666666666668 9.958333333333334 9.958333333333334 0 0 0 -0.225 2.141666666666667c0 0.7541666666666667 0.075 1.4708333333333334 0.225 2.154166666666667 0.15 0.6833333333333335 0.39583333333333337 1.2791666666666668 0.7291666666666666 1.7916666666666667a3.7458333333333336 3.7458333333333336 0 0 0 1.3041666666666667 1.2375c0.5291666666666667 0.3041666666666667 1.1708333333333336 0.45833333333333337 1.9250000000000003 0.45833333333333337 0.75 0 1.3916666666666668 -0.15416666666666667 1.916666666666667 -0.45833333333333337a3.7375000000000003 3.7375000000000003 0 0 0 1.2875 -1.2333333333333334c0.33333333333333337 -0.5166666666666667 0.5708333333333334 -1.1125 0.7208333333333333 -1.7958333333333334 0.15 -0.6833333333333335 0.225 -1.4000000000000001 0.225 -2.154166666666667 0 -0.75 -0.075 -1.4666666666666668 -0.225 -2.141666666666667a5.295833333333333 5.295833333333333 0 0 0 -0.7208333333333333 -1.7750000000000001 3.754166666666667 3.754166666666667 0 0 0 -1.2875 -1.2125 3.8208333333333337 3.8208333333333337 0 0 0 -1.916666666666667 -0.45zm27.025000000000002 0a3.854166666666667 3.854166666666667 0 0 0 -1.9250000000000003 0.45 3.804166666666667 3.804166666666667 0 0 0 -1.3041666666666667 1.2083333333333333 5.291666666666667 5.291666666666667 0 0 0 -0.7291666666666666 1.7791666666666668 9.958333333333334 9.958333333333334 0 0 0 -0.22083333333333335 2.141666666666667c0 0.7541666666666667 0.07083333333333335 1.4708333333333334 0.22083333333333335 2.154166666666667 0.15 0.6833333333333335 0.39583333333333337 1.2791666666666668 0.7291666666666666 1.7916666666666667a3.7458333333333336 3.7458333333333336 0 0 0 1.3041666666666667 1.2375c0.5291666666666667 0.3041666666666667 1.1708333333333336 0.45833333333333337 1.9250000000000003 0.45833333333333337 0.75 0 1.3916666666666668 -0.15416666666666667 1.916666666666667 -0.45833333333333337a3.7375000000000003 3.7375000000000003 0 0 0 1.2916666666666667 -1.2333333333333334c0.325 -0.5166666666666667 0.5666666666666668 -1.1125 0.7166666666666667 -1.7958333333333334 0.15 -0.6833333333333335 0.225 -1.4000000000000001 0.225 -2.154166666666667 0 -0.75 -0.075 -1.4666666666666668 -0.225 -2.141666666666667a5.295833333333333 5.295833333333333 0 0 0 -0.7208333333333333 -1.7750000000000001 3.754166666666667 3.754166666666667 0 0 0 -1.2833333333333334 -1.2125 3.816666666666667 3.816666666666667 0 0 0 -1.9208333333333336 -0.45zm-35.57083333333334 0.2833333333333334 -3.5 2.575 1.3041666666666667 1.7916666666666667 1.9833333333333334 -1.5333333333333334v7.820833333333334h2.5125v-10.654166666666667zm27.025000000000002 0 -3.504166666666667 2.575 1.3083333333333333 1.7916666666666667 1.9875 -1.5333333333333334v7.820833333333334h2.5125v-10.654166666666667zm-18.479166666666668 1.8541666666666667c0.33333333333333337 0 0.5958333333333333 0.11666666666666668 0.8041666666666667 0.35000000000000003 0.20833333333333337 0.23750000000000002 0.3625 0.5291666666666667 0.47500000000000003 0.875 0.10833333333333334 0.3458333333333334 0.18333333333333335 0.7208333333333333 0.225 1.1208333333333336a10.5875 10.5875 0 0 1 0 2.2208333333333337c-0.04166666666666667 0.40416666666666673 -0.11666666666666668 0.7791666666666667 -0.225 1.1250000000000002a2.4333333333333336 2.4333333333333336 0 0 1 -0.47500000000000003 0.875 1.0125 1.0125 0 0 1 -0.8041666666666667 0.35416666666666674 1.0333333333333334 1.0333333333333334 0 0 1 -0.8125000000000001 -0.35833333333333334 2.4333333333333336 2.4333333333333336 0 0 1 -0.4916666666666667 -0.8708333333333333 5.187500000000001 5.187500000000001 0 0 1 -0.23333333333333336 -1.1250000000000002 11.020833333333334 11.020833333333334 0 0 1 0 -2.2208333333333337c0.04166666666666667 -0.4 0.12083333333333335 -0.775 0.23333333333333336 -1.1250000000000002a2.4291666666666667 2.4291666666666667 0 0 1 0.4916666666666667 -0.8708333333333333 1.0416666666666667 1.0416666666666667 0 0 1 0.8125000000000001 -0.35000000000000003zm27.025000000000002 0c0.33333333333333337 0 0.6 0.11666666666666668 0.8041666666666667 0.35000000000000003 0.20833333333333337 0.23750000000000002 0.3625 0.5291666666666667 0.47500000000000003 0.875 0.1125 0.3458333333333334 0.18333333333333335 0.7208333333333333 0.225 1.1208333333333336a10.5875 10.5875 0 0 1 0 2.2208333333333337c-0.04166666666666667 0.40416666666666673 -0.1125 0.7791666666666667 -0.225 1.1250000000000002a2.4333333333333336 2.4333333333333336 0 0 1 -0.47500000000000003 0.875 1.0125 1.0125 0 0 1 -0.8041666666666667 0.35416666666666674 1.0375 1.0375 0 0 1 -0.8125000000000001 -0.35833333333333334 2.4208333333333334 2.4208333333333334 0 0 1 -0.48750000000000004 -0.8708333333333333 5.187500000000001 5.187500000000001 0 0 1 -0.23333333333333336 -1.1250000000000002 11.008333333333333 11.008333333333333 0 0 1 0 -2.2208333333333337c0.04166666666666667 -0.4 0.11666666666666668 -0.775 0.23333333333333336 -1.1250000000000002a2.4166666666666665 2.4166666666666665 0 0 1 0.48750000000000004 -0.8708333333333333 1.0416666666666667 1.0416666666666667 0 0 1 0.8125000000000001 -0.35000000000000003zm-9.129166666666666 14.625a3.8750000000000004 3.8750000000000004 0 0 0 -1.929166666666667 0.4541666666666667 3.7833333333333337 3.7833333333333337 0 0 0 -1.3 1.2125c-0.33333333333333337 0.5083333333333333 -0.5791666666666667 1.0958333333333334 -0.7291666666666666 1.7750000000000001a9.929166666666667 9.929166666666667 0 0 0 -0.225 2.141666666666667c0 0.75 0.075 1.4708333333333334 0.225 2.1500000000000004 0.15 0.6833333333333335 0.3916666666666667 1.2833333333333334 0.7291666666666666 1.8a3.791666666666667 3.791666666666667 0 0 0 1.3 1.2333333333333334 3.833333333333334 3.833333333333334 0 0 0 1.929166666666667 0.45833333333333337c0.75 0 1.3875000000000002 -0.15416666666666667 1.916666666666667 -0.45833333333333337a3.716666666666667 3.716666666666667 0 0 0 1.2833333333333334 -1.2333333333333334 5.500000000000001 5.500000000000001 0 0 0 0.725 -1.8c0.15 -0.6791666666666667 0.225 -1.3958333333333335 0.225 -2.1500000000000004 0 -0.75 -0.075 -1.4666666666666668 -0.225 -2.141666666666667a5.308333333333334 5.308333333333334 0 0 0 -0.725 -1.7750000000000001 3.7083333333333335 3.7083333333333335 0 0 0 -1.2875 -1.2125 3.8250000000000006 3.8250000000000006 0 0 0 -1.916666666666667 -0.45zm-26.675 0.29166666666666674 -3.504166666666667 2.5708333333333333 1.3083333333333333 1.7916666666666667 1.9833333333333334 -1.5375v7.825h2.5166666666666666v-10.654166666666667zm8.854166666666668 0 -3.504166666666667 2.5708333333333333 1.3083333333333333 1.7916666666666667 1.9875 -1.5375v7.825h2.5125v-10.654166666666667zm8.816666666666668 0 -3.5 2.5708333333333333 1.3041666666666667 1.7916666666666667 1.9875 -1.5375v7.825h2.5125v-10.654166666666667zm9.000000000000002 1.8458333333333334c0.33333333333333337 0 0.6 0.11666666666666668 0.8083333333333335 0.35416666666666674a2.5208333333333335 2.5208333333333335 0 0 1 0.47500000000000003 0.875c0.10833333333333334 0.3458333333333334 0.18333333333333335 0.7166666666666667 0.22083333333333335 1.1208333333333336a10.995833333333334 10.995833333333334 0 0 1 0 2.216666666666667 5.333333333333334 5.333333333333334 0 0 1 -0.22083333333333335 1.1250000000000002 2.4375 2.4375 0 0 1 -0.47500000000000003 0.875 1.0166666666666666 1.0166666666666666 0 0 1 -0.8041666666666667 0.35416666666666674 1.0416666666666667 1.0416666666666667 0 0 1 -0.8166666666666668 -0.35416666666666674 2.4541666666666666 2.4541666666666666 0 0 1 -0.48750000000000004 -0.875 5.187500000000001 5.187500000000001 0 0 1 -0.23333333333333336 -1.1250000000000002 10.820833333333335 10.820833333333335 0 0 1 0 -2.216666666666667c0.04166666666666667 -0.40416666666666673 0.11666666666666668 -0.775 0.23333333333333336 -1.1250000000000002a2.4541666666666666 2.4541666666666666 0 0 1 0.48750000000000004 -0.8708333333333333 1.0375 1.0375 0 0 1 0.8166666666666668 -0.35416666666666674zm-28.0375 12.804166666666667a2.816666666666667 2.816666666666667 0 0 0 -1.3958333333333335 0.325 2.754166666666667 2.754166666666667 0 0 0 -0.9458333333333334 0.8791666666666667 3.791666666666667 3.791666666666667 0 0 0 -0.5291666666666667 1.2916666666666667c-0.1125 0.4916666666666667 -0.16666666666666669 1.0083333333333333 -0.16666666666666669 1.5541666666666667s0.05416666666666667 1.0666666666666669 0.16666666666666669 1.5625a3.8750000000000004 3.8750000000000004 0 0 0 0.5291666666666667 1.3041666666666667 2.7083333333333335 2.7083333333333335 0 0 0 0.9458333333333334 0.8958333333333334c0.38333333333333336 0.22083333333333335 0.85 0.33333333333333337 1.3958333333333335 0.33333333333333337a2.729166666666667 2.729166666666667 0 0 0 1.3916666666666668 -0.33333333333333337 2.7083333333333335 2.7083333333333335 0 0 0 0.9375000000000001 -0.8958333333333334c0.23750000000000002 -0.375 0.41666666666666674 -0.8083333333333335 0.5208333333333334 -1.3041666666666667a7.291666666666667 7.291666666666667 0 0 0 0.16666666666666669 -1.5625c0 -0.5416666666666667 -0.05833333333333334 -1.0625 -0.16666666666666669 -1.5541666666666667a3.8791666666666673 3.8791666666666673 0 0 0 -0.5208333333333334 -1.2916666666666667 2.741666666666667 2.741666666666667 0 0 0 -0.9375000000000001 -0.875 2.7791666666666672 2.7791666666666672 0 0 0 -1.3916666666666668 -0.33333333333333337zm12.858333333333334 0a2.8125000000000004 2.8125000000000004 0 0 0 -1.4000000000000001 0.325 2.754166666666667 2.754166666666667 0 0 0 -0.9416666666666668 0.8791666666666667 3.7791666666666672 3.7791666666666672 0 0 0 -0.5291666666666667 1.2916666666666667 7.041666666666667 7.041666666666667 0 0 0 -0.16666666666666669 1.5541666666666667c0 0.5458333333333334 0.05416666666666667 1.0666666666666669 0.16666666666666669 1.5625a3.866666666666667 3.866666666666667 0 0 0 0.5291666666666667 1.3041666666666667c0.2416666666666667 0.375 0.5583333333333335 0.675 0.9416666666666668 0.8958333333333334 0.3875 0.22083333333333335 0.8541666666666666 0.33333333333333337 1.4000000000000001 0.33333333333333337a2.729166666666667 2.729166666666667 0 0 0 1.3916666666666668 -0.33333333333333337 2.7083333333333335 2.7083333333333335 0 0 0 0.9333333333333335 -0.8958333333333334c0.2416666666666667 -0.375 0.41666666666666674 -0.8083333333333335 0.525 -1.3041666666666667a7.300000000000001 7.300000000000001 0 0 0 0 -3.1166666666666667 3.9166666666666665 3.9166666666666665 0 0 0 -0.525 -1.2916666666666667 2.7375000000000003 2.7375000000000003 0 0 0 -0.9333333333333335 -0.875 2.7791666666666672 2.7791666666666672 0 0 0 -1.3916666666666668 -0.33333333333333337zm21.283333333333335 0a2.8125000000000004 2.8125000000000004 0 0 0 -1.4000000000000001 0.325 2.754166666666667 2.754166666666667 0 0 0 -0.9416666666666668 0.8791666666666667 3.791666666666667 3.791666666666667 0 0 0 -0.5291666666666667 1.2916666666666667c-0.1125 0.4916666666666667 -0.16666666666666669 1.0083333333333333 -0.16666666666666669 1.5541666666666667s0.05416666666666667 1.0666666666666669 0.16666666666666669 1.5625a3.8791666666666673 3.8791666666666673 0 0 0 0.5291666666666667 1.3041666666666667c0.2416666666666667 0.375 0.5583333333333335 0.675 0.9416666666666668 0.8958333333333334 0.3875 0.22083333333333335 0.8541666666666666 0.33333333333333337 1.4000000000000001 0.33333333333333337 0.5416666666666667 0 1.0125 -0.1125 1.3916666666666668 -0.33333333333333337a2.7083333333333335 2.7083333333333335 0 0 0 0.9333333333333335 -0.8958333333333334c0.2416666666666667 -0.375 0.41666666666666674 -0.8083333333333335 0.525 -1.3041666666666667a7.291666666666667 7.291666666666667 0 0 0 0.16666666666666669 -1.5625c0 -0.5416666666666667 -0.05833333333333334 -1.0625 -0.16666666666666669 -1.5541666666666667a3.9291666666666667 3.9291666666666667 0 0 0 -0.525 -1.2916666666666667 2.7375000000000003 2.7375000000000003 0 0 0 -0.9333333333333335 -0.875 2.7833333333333337 2.7833333333333337 0 0 0 -1.3916666666666668 -0.33333333333333337zm-27.74166666666667 0.20833333333333337 -2.541666666666667 1.866666666666667 0.9458333333333334 1.2958333333333334 1.4416666666666667 -1.1083333333333334v5.675000000000001h1.8250000000000002v-7.733333333333334zm12.783333333333335 0 -2.541666666666667 1.866666666666667 0.9458333333333334 1.2958333333333334 1.4416666666666667 -1.1083333333333334v5.675000000000001h1.8250000000000002v-7.733333333333334zm21.283333333333335 0 -2.5458333333333334 1.866666666666667 0.9500000000000001 1.2958333333333334 1.4416666666666667 -1.1083333333333334v5.675000000000001h1.8250000000000002v-7.733333333333334zm-40.46666666666667 1.3416666666666668c0.2416666666666667 0 0.4375 0.08333333333333334 0.5833333333333335 0.25833333333333336a1.7541666666666667 1.7541666666666667 0 0 1 0.3458333333333334 0.6291666666666667 4 4 0 0 1 0.16666666666666669 0.8166666666666668 8.05 8.05 0 0 1 0 1.6083333333333334 3.975 3.975 0 0 1 -0.16666666666666669 0.8208333333333334 1.7541666666666667 1.7541666666666667 0 0 1 -0.3458333333333334 0.6333333333333334 0.7333333333333334 0.7333333333333334 0 0 1 -0.5833333333333335 0.25416666666666665 0.75 0.75 0 0 1 -0.5875 -0.25 1.7791666666666668 1.7791666666666668 0 0 1 -0.35416666666666674 -0.6375000000000001 3.6958333333333337 3.6958333333333337 0 0 1 -0.17083333333333336 -0.8208333333333334 8.166666666666668 8.166666666666668 0 0 1 0 -1.6083333333333334 3.7208333333333337 3.7208333333333337 0 0 1 0.16666666666666669 -0.8166666666666668 1.75 1.75 0 0 1 0.35833333333333334 -0.6291666666666667 0.7541666666666667 0.7541666666666667 0 0 1 0.5875 -0.25833333333333336zm12.858333333333334 0c0.2416666666666667 0 0.43333333333333335 0.08333333333333334 0.5833333333333335 0.25833333333333336a1.7541666666666667 1.7541666666666667 0 0 1 0.34166666666666673 0.6291666666666667 3.9166666666666665 3.9166666666666665 0 0 1 0.16666666666666669 0.8166666666666668 7.941666666666667 7.941666666666667 0 0 1 0 1.6083333333333334 3.8750000000000004 3.8750000000000004 0 0 1 -0.16666666666666669 0.8208333333333334 1.7541666666666667 1.7541666666666667 0 0 1 -0.34166666666666673 0.6333333333333334 0.7333333333333334 0.7333333333333334 0 0 1 -0.5833333333333335 0.25416666666666665 0.75 0.75 0 0 1 -0.5875 -0.25 1.75 1.75 0 0 1 -0.35833333333333334 -0.6375000000000001 3.5250000000000004 3.5250000000000004 0 0 1 -0.16666666666666669 -0.8208333333333334 8.187500000000002 8.187500000000002 0 0 1 -0.04583333333333334 -0.8125000000000001c0 -0.23750000000000002 0.01666666666666667 -0.5041666666666667 0.04166666666666667 -0.7958333333333334a3.5375 3.5375 0 0 1 0.17083333333333336 -0.8166666666666668 1.75 1.75 0 0 1 0.35833333333333334 -0.6291666666666667 0.7583333333333334 0.7583333333333334 0 0 1 0.5875 -0.25833333333333336zm21.283333333333335 0c0.2416666666666667 0 0.43333333333333335 0.08333333333333334 0.5833333333333335 0.25833333333333336a1.7541666666666667 1.7541666666666667 0 0 1 0.34166666666666673 0.6291666666666667 3.833333333333334 3.833333333333334 0 0 1 0.16666666666666669 0.8166666666666668 8.179166666666667 8.179166666666667 0 0 1 0 1.6083333333333334 3.9291666666666667 3.9291666666666667 0 0 1 -0.16666666666666669 0.8208333333333334 1.7541666666666667 1.7541666666666667 0 0 1 -0.34166666666666673 0.6333333333333334 0.7375 0.7375 0 0 1 -0.5833333333333335 0.25416666666666665 0.75 0.75 0 0 1 -0.5916666666666667 -0.25 1.8208333333333335 1.8208333333333335 0 0 1 -0.35416666666666674 -0.6375000000000001 3.9583333333333335 3.9583333333333335 0 0 1 -0.16666666666666669 -0.8208333333333334 8.187500000000002 8.187500000000002 0 0 1 -0.04583333333333334 -0.8125000000000001c0 -0.23750000000000002 0.01666666666666667 -0.5041666666666667 0.04166666666666667 -0.7958333333333334a3.9958333333333336 3.9958333333333336 0 0 1 0.16666666666666669 -0.8166666666666668 1.9583333333333333 1.9583333333333333 0 0 1 0.35833333333333334 -0.6291666666666667 0.7541666666666667 0.7541666666666667 0 0 1 0.5916666666666667 -0.25833333333333336zm-7.016666666666667 7.5583333333333345a2.8125000000000004 2.8125000000000004 0 0 0 -1.4000000000000001 0.3291666666666667 2.7500000000000004 2.7500000000000004 0 0 0 -0.9458333333333334 0.875 3.791666666666667 3.791666666666667 0 0 0 -0.5291666666666667 1.2916666666666667 7.212500000000001 7.212500000000001 0 0 0 0 3.1166666666666667 3.9125 3.9125 0 0 0 0.5291666666666667 1.3083333333333333c0.24583333333333335 0.375 0.5583333333333335 0.675 0.9458333333333334 0.8958333333333334 0.3875 0.22083333333333335 0.8541666666666666 0.33333333333333337 1.4000000000000001 0.33333333333333337a2.7500000000000004 2.7500000000000004 0 0 0 1.3916666666666668 -0.33333333333333337 2.7 2.7 0 0 0 0.9333333333333335 -0.8958333333333334c0.2416666666666667 -0.375 0.41666666666666674 -0.8125000000000001 0.525 -1.3083333333333333a7.237500000000001 7.237500000000001 0 0 0 -0.0041666666666666675 -3.1125000000000003 3.866666666666667 3.866666666666667 0 0 0 -0.5208333333333334 -1.2916666666666667 2.7083333333333335 2.7083333333333335 0 0 0 -0.9333333333333335 -0.8791666666666667 2.7833333333333337 2.7833333333333337 0 0 0 -1.3916666666666668 -0.3291666666666667zm12.762500000000001 0a2.816666666666667 2.816666666666667 0 0 0 -1.4000000000000001 0.3291666666666667 2.766666666666667 2.766666666666667 0 0 0 -0.9458333333333334 0.875 3.7750000000000004 3.7750000000000004 0 0 0 -0.5291666666666667 1.2916666666666667 7.250000000000001 7.250000000000001 0 0 0 0 3.1166666666666667 3.9000000000000004 3.9000000000000004 0 0 0 0.5291666666666667 1.3083333333333333 2.7500000000000004 2.7500000000000004 0 0 0 0.9458333333333334 0.8958333333333334c0.38333333333333336 0.22083333333333335 0.85 0.33333333333333337 1.4000000000000001 0.33333333333333337a2.725 2.725 0 0 0 1.3916666666666668 -0.33333333333333337 2.7 2.7 0 0 0 0.9291666666666667 -0.8958333333333334c0.2416666666666667 -0.375 0.41666666666666674 -0.8125000000000001 0.525 -1.3083333333333333a7.250000000000001 7.250000000000001 0 0 0 0 -3.1125000000000003 3.866666666666667 3.866666666666667 0 0 0 -0.525 -1.2916666666666667 2.7083333333333335 2.7083333333333335 0 0 0 -0.9291666666666667 -0.8791666666666667 2.7750000000000004 2.7750000000000004 0 0 0 -1.3916666666666668 -0.3291666666666667zm-6.4375 0.20833333333333337 -2.5458333333333334 1.866666666666667 0.9500000000000001 1.3 1.4416666666666667 -1.1125v5.679166666666667h1.8250000000000002v-7.733333333333334zm-6.325 1.3458333333333334c0.23750000000000002 0 0.43333333333333335 0.08333333333333334 0.5833333333333335 0.25416666666666665a1.75 1.75 0 0 1 0.34166666666666673 0.6333333333333334 3.791666666666667 3.791666666666667 0 0 1 0.16666666666666669 0.8125000000000001 8.191666666666666 8.191666666666666 0 0 1 0 1.6125000000000003 3.9625 3.9625 0 0 1 -0.16666666666666669 0.8208333333333334 1.7541666666666667 1.7541666666666667 0 0 1 -0.34166666666666673 0.6333333333333334 0.7375 0.7375 0 0 1 -0.5833333333333335 0.25 0.75 0.75 0 0 1 -0.5916666666666667 -0.25 1.7833333333333334 1.7833333333333334 0 0 1 -0.35416666666666674 -0.6333333333333334 3.8083333333333336 3.8083333333333336 0 0 1 -0.16666666666666669 -0.8208333333333334 8.166666666666668 8.166666666666668 0 0 1 -0.04583333333333334 -0.8125000000000001c0 -0.2416666666666667 0.0125 -0.5083333333333333 0.04166666666666667 -0.8a3.8458333333333337 3.8458333333333337 0 0 1 0.17083333333333336 -0.8125000000000001c0.08333333333333334 -0.25 0.2 -0.45833333333333337 0.35416666666666674 -0.6333333333333334a0.7541666666666667 0.7541666666666667 0 0 1 0.5916666666666667 -0.25416666666666665zm12.762500000000001 0c0.23750000000000002 0 0.43333333333333335 0.08333333333333334 0.5833333333333335 0.25416666666666665a1.75 1.75 0 0 1 0.34166666666666673 0.6333333333333334 3.9166666666666665 3.9166666666666665 0 0 1 0.16666666666666669 0.8125000000000001 7.958333333333334 7.958333333333334 0 0 1 0 1.6125000000000003 3.8750000000000004 3.8750000000000004 0 0 1 -0.16666666666666669 0.8208333333333334 1.7583333333333333 1.7583333333333333 0 0 1 -0.3458333333333334 0.6333333333333334 0.7291666666666666 0.7291666666666666 0 0 1 -0.5833333333333335 0.25 0.75 0.75 0 0 1 -0.5875 -0.25 1.7625000000000002 1.7625000000000002 0 0 1 -0.35416666666666674 -0.6333333333333334 3.7791666666666672 3.7791666666666672 0 0 1 -0.16666666666666669 -0.8208333333333334 8.125 8.125 0 0 1 0 -1.6125000000000003 3.8125000000000004 3.8125000000000004 0 0 1 0.16666666666666669 -0.8125000000000001c0.08333333333333334 -0.25 0.2 -0.45833333333333337 0.35416666666666674 -0.6333333333333334a0.7583333333333334 0.7583333333333334 0 0 1 0.5916666666666667 -0.25416666666666665zm-40.47083333333333 0.7708333333333334a1.9375000000000002 1.9375000000000002 0 0 0 -0.9666666666666668 0.22916666666666669 1.9000000000000001 1.9000000000000001 0 0 0 -0.6541666666666667 0.6083333333333334 2.6125000000000003 2.6125000000000003 0 0 0 -0.37083333333333335 0.8958333333333334 4.866666666666667 4.866666666666667 0 0 0 -0.1125 1.0791666666666668c0 0.375 0.0375 0.7375 0.1125 1.0833333333333335a2.7 2.7 0 0 0 0.37083333333333335 0.9c0.16666666666666669 0.2625 0.3875 0.46666666666666673 0.6541666666666667 0.6208333333333333a1.9125000000000003 1.9125000000000003 0 0 0 0.9666666666666668 0.23333333333333336c0.375 0 0.7000000000000001 -0.08333333333333334 0.9625000000000001 -0.23333333333333336a1.8750000000000002 1.8750000000000002 0 0 0 0.65 -0.6208333333333333 2.791666666666667 2.791666666666667 0 0 0 0.3625 -0.9041666666666667 5.075 5.075 0 0 0 0 -2.1583333333333337 2.6958333333333337 2.6958333333333337 0 0 0 -0.3625 -0.8958333333333334 1.866666666666667 1.866666666666667 0 0 0 -0.65 -0.6083333333333334 1.9083333333333334 1.9083333333333334 0 0 0 -0.9583333333333335 -0.22916666666666669zm4.383333333333334 0.14583333333333337 -1.7625000000000002 1.2916666666666667 0.6583333333333334 0.9041666666666667 1 -0.7708333333333334v3.9333333333333336h1.2625v-5.358333333333334zm-4.383333333333334 0.9333333333333335c0.16666666666666669 0 0.3041666666666667 0.05833333333333334 0.40416666666666673 0.17500000000000002a1.1833333333333333 1.1833333333333333 0 0 1 0.23750000000000002 0.4375 2.875 2.875 0 0 1 0.11666666666666668 0.5666666666666668c0.01666666666666667 0.2041666666666667 0.02916666666666667 0.38333333333333336 0.02916666666666667 0.5541666666666667 0 0.16666666666666669 -0.0125 0.35833333333333334 -0.02916666666666667 0.5625000000000001a2.8500000000000005 2.8500000000000005 0 0 1 -0.11666666666666668 0.5666666666666668 1.1875 1.1875 0 0 1 -0.23750000000000002 0.4375 0.5125000000000001 0.5125000000000001 0 0 1 -0.40416666666666673 0.17916666666666667 0.5208333333333334 0.5208333333333334 0 0 1 -0.4083333333333334 -0.17916666666666667 1.2416666666666667 1.2416666666666667 0 0 1 -0.24583333333333335 -0.4375 2.5500000000000003 2.5500000000000003 0 0 1 -0.11666666666666668 -0.5666666666666668 5.791666666666667 5.791666666666667 0 0 1 0 -1.116666666666667 2.5833333333333335 2.5833333333333335 0 0 1 0.11666666666666668 -0.5666666666666668 1.2375 1.2375 0 0 1 0.25 -0.4375 0.5208333333333334 0.5208333333333334 0 0 1 0.40416666666666673 -0.17500000000000002zm15.729166666666668 5.808333333333334a1.929166666666667 1.929166666666667 0 0 0 -0.9666666666666668 0.225 1.8833333333333335 1.8833333333333335 0 0 0 -0.6541666666666667 0.6083333333333334 2.5875000000000004 2.5875000000000004 0 0 0 -0.3666666666666667 0.8916666666666667 4.958333333333333 4.958333333333333 0 0 0 0 2.1625 2.6708333333333334 2.6708333333333334 0 0 0 0.3666666666666667 0.9041666666666667 1.916666666666667 1.916666666666667 0 0 0 0.6541666666666667 0.625 1.9083333333333334 1.9083333333333334 0 0 0 0.9666666666666668 0.225 1.8916666666666668 1.8916666666666668 0 0 0 0.9666666666666668 -0.22916666666666669 1.8750000000000002 1.8750000000000002 0 0 0 0.6458333333333334 -0.6208333333333333 2.766666666666667 2.766666666666667 0 0 0 0.3625 -0.9041666666666667 4.9541666666666675 4.9541666666666675 0 0 0 0 -2.1625 2.6750000000000003 2.6750000000000003 0 0 0 -0.3625 -0.8916666666666667 1.8583333333333334 1.8583333333333334 0 0 0 -0.6458333333333334 -0.6083333333333334 1.9125000000000003 1.9125000000000003 0 0 0 -0.9666666666666668 -0.225zm4.383333333333334 0.1416666666666667 -1.7625000000000002 1.2916666666666667 0.6583333333333334 0.9 1 -0.7708333333333334v3.9375h1.2625V94.5zm-4.383333333333334 0.9291666666666667c0.16666666666666669 0 0.3041666666666667 0.05833333333333334 0.4083333333333334 0.17916666666666667a1.25 1.25 0 0 1 0.23750000000000002 0.4375 2.679166666666667 2.679166666666667 0 0 1 0.1125 0.5625000000000001 5.458333333333334 5.458333333333334 0 0 1 0 1.116666666666667 2.725 2.725 0 0 1 -0.1125 0.5708333333333334 1.2791666666666668 1.2791666666666668 0 0 1 -0.23750000000000002 0.4375 0.5166666666666667 0.5166666666666667 0 0 1 -0.4083333333333334 0.17500000000000002 0.5208333333333334 0.5208333333333334 0 0 1 -0.4083333333333334 -0.17500000000000002 1.2208333333333334 1.2208333333333334 0 0 1 -0.24583333333333335 -0.4375 2.575 2.575 0 0 1 -0.11666666666666668 -0.5708333333333334 5.6833333333333345 5.6833333333333345 0 0 1 0 -1.116666666666667 2.5500000000000003 2.5500000000000003 0 0 1 0.11666666666666668 -0.5625000000000001 1.1958333333333333 1.1958333333333333 0 0 1 0.25 -0.4375 0.5125000000000001 0.5125000000000001 0 0 1 0.40416666666666673 -0.17916666666666667z" fill="#ffffff" stroke-width="4.1667"></path>
</svg>