<svg xmlns="http://www.w3.org/2000/svg" width="40px" height="40px" viewBox="0 0 757.8878244 757.8878244" version="1.1" id="svg5" xml:space="preserve" data-square-offset-x="112.08200219999998" data-square-offset-y="124.1854572"><defs id="defs2" style="fill: rgb(255, 255, 255);"/><g id="layer1" transform="" style="fill: rgb(255, 255, 255);"><path style="fill: rgb(255, 255, 255); stroke-width: 1;" d="m 211.64250219999957 633.5460572 c 0,-0.099 1.4995,-4.5238 3.3408,-9.8271 3.2635,-9.418 5.8766,-17.1005 15.3806,-45.2322 6.1302,-18.1182 11.687,-34.5419 21.7313,-64.1774 4.5315,-13.3706 11.7973,-34.812 16.1524,-47.6479 4.344,-12.8348 8.2471,-24.3168 8.666,-25.5131 l 0.7718,-2.1764 -13.2857,-9.9208 c -7.2989,-5.4565 -23.6057,-17.5945 -36.2299,-26.9739 -12.6242,-9.3783 -29.6807,-22.0621 -37.9168,-28.1857 -8.2361,-6.1236 -25.6564,-19.062 -38.7106,-28.7524 -13.0432,-9.6903 -27.2662,-20.2682 -31.5882,-23.5064 l -7.8722,-5.8854 100.9828,-0.1952 100.9938,-0.194 1.8413,-5.4455 c 1.0144,-2.9957 11.213,-33.3633 22.6575,-67.484 33.1096,-98.7159 39.7139,-118.2432 39.9785,-118.2432 0.1323,0 1.0364,2.3197 2.0177,5.1544 3.8589,11.1898 19.1734,55.8057 21.8636,63.6912 2.7013,7.9328 7.5194,22.0146 18.0268,52.7042 4.763,13.9109 22.492,65.2557 23.5064,68.0672 l 0.5623,1.5557 100.641,0.099 100.6521,0.099 -14.1458,10.5526 c -26.1746,19.5273 -35.5794,26.5373 -51.9302,38.6875 -8.9528,6.6528 -23.8923,17.7566 -33.1979,24.6751 -9.3055,6.9174 -21.2903,15.8117 -26.6487,19.7632 -24.2562,17.9264 -39.8683,29.7304 -39.8683,30.1538 0,0.2535 1.0695,3.5182 2.3815,7.2559 1.301,3.7376 3.1313,8.9836 4.0464,11.6584 3.5061,10.1423 15.9539,46.1197 19.3057,55.8145 1.9294,5.5624 5.1379,14.8392 7.1335,20.6144 1.9956,5.7763 8.0376,23.1922 13.4181,38.7018 5.3804,15.5096 12.2383,35.2707 15.2152,43.9136 2.9879,8.6429 5.5348,15.8856 5.6671,16.0951 0.1323,0.2094 0,0.3142 -0.1984,0.2326 -0.5072,-0.1753 -11.5548,-8.3 -31.2464,-22.9706 -7.8391,-5.8446 -16.1524,-12.0222 -18.4788,-13.7279 -2.3153,-1.7045 -7.8832,-5.8314 -12.3816,-9.1699 -4.4874,-3.3385 -17.707,-13.159 -29.361,-21.8228 -11.654,-8.6628 -29.0743,-21.6123 -38.6996,-28.7756 -9.6253,-7.1621 -22.1283,-16.4655 -27.7844,-20.6717 -6.3837,-4.7487 -10.4411,-7.5249 -10.6947,-7.3221 -0.2316,0.1808 -9.7797,7.3177 -21.2242,15.8603 -11.4445,8.5425 -33.6719,25.1613 -49.4054,36.9311 -25.7997,19.3156 -52.9556,39.5739 -69.8136,52.0757 -3.4179,2.5392 -10.7278,7.9991 -16.2406,12.1336 -5.5017,4.1346 -10.0112,7.4356 -10.0112,7.3342 z m 16.836,-20.7467 c 1.1467,-1.6506 4.7961,-6.8524 8.1258,-11.5592 3.3187,-4.7057 7.9715,-11.3574 10.353,-14.7797 2.3705,-3.4234 5.2922,-7.6242 6.472,-9.3353 1.1907,-1.7112 5.4797,-7.9252 9.526,-13.8073 9.4158,-13.6893 13.9032,-20.1778 31.0148,-44.9246 7.6959,-11.1248 18.2804,-26.4392 23.5285,-34.0336 5.2482,-7.5944 16.4391,-23.7854 24.8846,-35.9785 8.4566,-12.1943 17.0896,-24.7082 19.1955,-27.8108 2.1169,-3.1015 4.8733,-7.1016 6.1302,-8.8888 1.2569,-1.7861 2.2051,-3.3352 2.0948,-3.4411 -0.2205,-0.2172 -2.3484,0.6197 -59.7583,23.4238 -14.675,5.8281 -12.9771,4.8512 -14.3443,8.2978 -2.0728,5.2349 -30.0776,79.6969 -41.8529,111.2972 -2.5138,6.7388 -5.4025,14.0906 -6.4168,16.3365 -1.0144,2.2459 -4.7741,10.4732 -8.3574,18.2814 -8.6771,18.9055 -13.7267,30.5661 -13.0432,30.146 0.1985,-0.1213 1.29,-1.5722 2.4477,-3.2238 z m 300.8646,-1.5458 c -0.2756,-0.376 -4.1125,-5.4962 -8.5117,-11.3773 -7.7509,-10.3662 -12.5912,-16.9054 -37.1119,-50.1727 -6.3838,-8.6639 -14.4214,-19.5384 -17.8614,-24.1658 -3.4399,-4.6274 -8.1148,-10.9285 -10.386,-14.0024 -5.8215,-7.8733 -53.7826,-72.4333 -64.323,-86.589 -4.8291,-6.4709 -8.9747,-11.7664 -9.2173,-11.7664 -0.3308,0 -0.3749,9.0387 -0.1764,35.2982 l 0.2646,35.2982 1.4443,1.3055 c 1.5546,1.3958 11.2681,9.5745 27.0898,22.8096 17.8724,14.9418 31.3896,26.3003 46.3182,38.8947 8.1369,6.8579 18.986,15.965 24.1128,20.2374 5.1379,4.2724 13.4622,11.7058 18.5009,16.5195 5.0386,4.8138 12.3045,11.7257 16.1414,15.3619 3.8368,3.6351 8.5006,8.0552 10.3529,9.8215 3.2305,3.0729 4.4543,3.9924 3.3628,2.5271 z m -158.084,-216.0629 c -0.2205,-0.3715 -35.2266,-44.3094 -46.9577,-58.938 -1.0805,-1.344 -2.3264,-2.5183 -2.7564,-2.6087 -0.6726,-0.14 -40.9929,-1.8236 -102.7138,-4.2889 -7.9053,-0.3164 -19.0191,-0.7608 -24.6972,-0.9879 -7.1887,-0.2878 -15.0058,-0.9361 -25.8659,-2.1456 -24.3003,-2.7067 -37.6412,-4.0805 -37.8176,-3.8964 -0.4851,0.4774 40.6512,13.0862 133.3097,40.8694 14.0134,4.2019 30.9045,9.2802 37.5309,11.2869 46.638,14.1127 68.8654,20.8834 69.0088,21.0279 0.3969,0.4057 1.2238,0.1334 0.9592,-0.3187 z m 36.2188,-4.7178 c 8.5559,-2.6483 25.2706,-7.8292 37.1451,-11.5118 11.8744,-3.6836 32.3489,-10.0155 45.5133,-14.0707 45.0834,-13.901 54.3118,-16.7566 86.5394,-26.7932 36.285,-11.3 49.2069,-15.4159 49.5487,-15.7786 0.2757,-0.2933 0.9703,-0.3484 -29.3279,2.3617 -13.0432,1.1676 -24.8625,2.2183 -26.2518,2.333 -2.4697,0.205 -21.4777,1.1654 -46.4726,2.3484 -6.8468,0.3231 -17.7952,0.8457 -24.3113,1.1599 -6.5271,0.3142 -15.7995,0.7486 -20.6177,0.9658 -4.8181,0.2161 -15.0498,0.6792 -22.7567,1.0287 -7.6958,0.3484 -14.3773,0.7784 -14.8514,0.9548 -0.463,0.1775 -3.9581,4.2085 -7.773,8.9583 -3.8148,4.7509 -9.3827,11.644 -12.3816,15.3199 -2.988,3.6748 -9.7356,11.9914 -14.9727,18.4821 -5.2371,6.4897 -10.6286,13.127 -11.9847,14.7478 -2.6131,3.1378 -3.4069,4.3099 -2.8998,4.3099 0.1654,0 7.2989,-2.1677 15.8547,-4.816 z m -29.2286,-71.323 c 0.1323,-39.3082 0.2315,-95.1867 0.2095,-124.1739 v -52.7032 l -0.9041,3.6484 c -1.1687,4.6318 -3.2195,14.665 -7.1777,35.0523 -3.1092,16.0058 -5.5458,25.6498 -15.9429,63.205 -0.8269,2.9956 -4.0463,14.8977 -7.1555,26.4491 -3.1092,11.5526 -7.8502,29.135 -10.5294,39.0723 -2.6792,9.9384 -4.9836,18.6464 -5.1159,19.3509 -0.2094,1.1356 0,1.5844 1.8854,3.9074 2.569,3.193 27.3874,35.6632 37.0127,48.4275 3.8369,5.0794 7.0894,9.2349 7.2327,9.2349 0.1434,0 0.3859,-32.1614 0.5293,-71.4707 z m 29.8681,39.285 c 0.4741,-0.6174 0.4631,-0.6306 -0.1543,-0.1466 -0.3749,0.2933 -0.6726,0.5998 -0.6726,0.6803 0,0.3197 0.3198,0.1146 0.8269,-0.5337 z" id="path225"/></g></svg>